<svg xmlns="http://www.w3.org/2000/svg" viewBox="0 0 373.53 405.41"><defs><style>.cls-1{fill:#292929;}</style></defs><g id="Layer_2" data-name="Layer 2"><g id="Layer_1-2" data-name="Layer 1"><path class="cls-1" d="M50.71,230.63c-.08-1-.15-2.09-.25-3.45a10.49,10.49,0,0,1,1.4.45c.38.19.86.81,1,.73,3-1.74,3.64.63,4.62,2.49.07.13.24.21.56.48l7.2-4.49.58.52-3.48,4.35,4.75-2.6,1.3,4.36-3-2.22c-.23.55-.73,1.42-.61,1.51,1.59,1.25,3.26,2.4,5,3.64l-1.34,1.47,6.61.46.15-.82-3.2-.82-.08-.62a21.85,21.85,0,0,1,3-.37,25.21,25.21,0,0,1,3.4.53l-1-2.14,2.65.56-.68-2.47-4.91,1.7L74,233.3c.37-.58.74-1.15,1.26-1.94l-2.89-.92v1.7h-.66v-4.85c2.38,2.72,3.92.34,4.16-.44.49-1.56,1.39-3.22-.33-5.31-1.42-1.73-3.54-.9-5-2.89l2.42-.23-.06-.07a7.39,7.39,0,0,0,1.31.48c1.21.19,2.42.32,3.63.47.5,3.14,3.15,2,5,2.47L79.76,223c1.68,3.16,5.41,1.86,7.91,3.49l-3.42,2.65.32.38,8-3.93c-1.77-3.1-2.13-3.29-4.67-2.45L85.43,221v1.73l-2.63-.91-5-2.47c.15-3.64,3.61-1.84,5.48-3.2l-3-5.74.58-.53,4.69,3.53c-.33-2.73-3.12-5.22.39-7.19,1.48-.16,2.7,4.16,4.51,1.14l-.61-4.54,5.9-1.4c-.59-2.41-1-5,2.2-6.63l-3-1.23.19-.6c1.21.21,2.41.44,3.62.62.64.1,1.29.12,1.93.18-.18-.71-.32-1.44-.56-2.13a4.94,4.94,0,0,0-.51-1,26.73,26.73,0,0,1,3.7-2.75c.71-.37,1.77-.07,2.26-.57.64-.67,1.24-1.38,1.93-2,.27-.25.76-.25,1.11-.44,2.83-1.53,5.6-3.19,8.5-4.57,1.81-.87,3.87-1.22,5.73-2a25.62,25.62,0,0,0,3.43-2.07l-.18-.68h-3.65c2.62-1.62,5.47-3.36,8.3-5.13a2.25,2.25,0,0,0,.81-.92c2.59-5.51,7.68-8,12.7-10.57,3.78-1.92,4.56-4.69,1.95-7.28-.38-.39-1-.9-1.41-.84-2.63.35-2.93-1.53-3.27-3.32-.27-1.44-.35-2.93-.65-4.37a9.7,9.7,0,0,0-3.58-6.21,5.84,5.84,0,0,1-2.08-3.63c-.92-8.87-1.62-17.75-2.36-26.63a44.79,44.79,0,0,1-.41-8c.22-2.11,1.3-4.13,2.09-6.16,1.51-3.87,3.14-7.68,4.56-11.58.37-1,0-2.29.22-3.41.24-1.32.35-3,1.2-3.79,1.51-1.4,3.14-2.4,2.12-4.81a1.16,1.16,0,0,1,.12-.93c1.86-2.49,2.32-6.08,6.15-7,1.07-.27,1.71-2.06,2.68-3,1.2-1.19.78-2.21.33-3.64-.35-1.12.12-3.48.89-3.83,4.4-2,5.08-6,6-9.92a10.08,10.08,0,0,1,1.77-3.67c2.07-2.69,4.33-5.24,6.5-7.87a3.54,3.54,0,0,0,.91-1.43c.69-3.95,4.4-4.18,7-5.72.37-.22,1.12.2,1.62.31,2.42-2.57,4.86-5.17,7.33-7.74a4.09,4.09,0,0,1,1.43-.92c4.1-1.53,8.24-3,12.3-4.6.59-.23,1-1.33,1.17-2.1.63-3.34,2-4.91,5.43-5.6.54-.11,1.61.09,1.68.34.64,2.4,2.36,2.05,4.12,1.85,1.59-.19,3.2-.24,4.8-.35l.43-.78-1.9-.52c5-1.83,10,1,14.44-1.8.54,2.38,3.17,3.21,6,2.05a16,16,0,0,1,3.18-.62l.2,1.11L233,3.47l4.89,4,.18.86c-3.07-1.13-1.26,1.09-2.21,1.74l-7.5-2c.4,2,.68,3.46,1,5.29l-4.51-2.16c.2,1.28.48,3.06.72,4.65l-5-.37-.21.72,2.5,1.33-.09.37-6.13-1.28L218,14.14l-4.25,2.4c3.36,1.28,6.32,2.39,9.26,3.54a7,7,0,0,1,1.25.89c-.42.29-.82.59-1.25.86a8,8,0,0,1-1.6.93,6.77,6.77,0,0,1-2.22.42,13.21,13.21,0,0,0-3.49.1,10,10,0,0,0,7.56.52c.84-.24,1.89-1.8,2.32.45,0,.16,1.37,0,2.1.11,1.82.18,3.64.4,5.71.63.84-1.24,3.64-1.4,6.67.14a20.16,20.16,0,0,1-1.25-3,7.6,7.6,0,0,1,.08-2.17,13.29,13.29,0,0,1,2.28.42,7.3,7.3,0,0,1,1.56,1.17l.37-1.68,1.9,1.24.45-.3c-.43-.77-.92-1.51-1.28-2.31a14.07,14.07,0,0,1-.6-1.94,12.56,12.56,0,0,1,1.94,0,13.87,13.87,0,0,1,2,.52l.24-3.41,9.2,4.18.7-.6-3.34-6.14,1-.6c1,1.72,2,3.43,3,5.18.44.8.76,1.67,1.14,2.52.78-.59,1.58-1.15,2.33-1.78a4.06,4.06,0,0,0,.64-1l2.19,3.94c3.09.44,2.51-2.82,3.53-4.35l4.59.31-.16.57-3.07,1.49.28.83c3.34.26,6.78-2.67,10.06,0l-.45.35c1.08.64,2.21,1.34,3.36,2a2.92,2.92,0,0,0,1.54.55c3-.41,4.93,1.23,7,3.18l-1.25.59c.77,2.21,4.29,2.51,3.77,5.85-.93-.38-1.73-.69-2.52-1,6.73,5.75,10.21,13.64,14,21.32-.74-1.17-1.6-1.81-2.94-.68l2.8,3.58.44-.14c-.09-.83-.19-1.67-.28-2.5l3.64,8,.34,0c-.13-.91-.25-1.81-.36-2.72-.07-.53-.36-1.32-.12-1.55,1.71-1.65-.29-1.3-.4-1.37-1-4.49-1.86-8.56-2.75-12.63l.39-.18c.91,2.06,2.59,4.14,2.53,6.17-.08,2.4,1.16,4,1.9,5.83a17.57,17.57,0,0,0,3,4.85l-.84-2.87.56-.51c.62.65,1.49,1.18,1.83,2a84.35,84.35,0,0,1,6.58,21.45c.7,4.48,2.38,8.8,3.15,13.28a101.07,101.07,0,0,1,.82,11.16c0,.47-.22,1-.14,1.41.72,4.32,1.77,8.6,2.17,12.94.56,6,.7,12,.87,18a10.74,10.74,0,0,1-1,3.74,100.94,100.94,0,0,1-14,25.31c-2.09,2.82-4.4,5.85-5.22,9.13-.71,2.88-2.91,5.38-2.23,8.88.26,1.37.18,4.47-2.41,5.49-.07,0-.19.13-.18.16,1.09,3.38-1.79,2.23-3.17,2.83a2.17,2.17,0,0,0-1.19,1.15c-.59,2.71-2.49,5.22-.22,8.27,1.62,2.19,2.59,4.74,4.82,6.66,1,.88.69,3.44.77,5.24.05,1-.81,2.65-.38,3,1,1,2.49,1.89,4.17,1a5.9,5.9,0,0,1,1.15-.33l.36.64-4.12,2.54.73,1.29-5.61,2.36,0,.52a11.74,11.74,0,0,0,1.66.14c3-.16,4.18,1.32,3.51,4.22-.77,3.32-1.5,6.65-2.14,10a36.21,36.21,0,0,0-.61,5.59c0,.53.75,1.08.84,1.2V254l.48.2a15.82,15.82,0,0,0,.82-1.65c1.5-4,2.93-8.07,4.51-12.06a6.64,6.64,0,0,1,2-2.56c.41-.34,1.33-.05,2-.05a5.2,5.2,0,0,1-.24,1.8,35.21,35.21,0,0,0-4.17,11.75c-.15,1-.46,2-.66,3s-.78,2.23-.47,3.08c1.59,4.27-.34,8.27-.69,12.38-.46,5.49-1,11-1.06,16.59.53-3.17,1.08-6.34,1.6-9.52.55-3.37,1-6.76,1.62-10.14s1.06-6.64,1.9-9.88,2-6.26,3.14-9.6l2.29,1.45c-.35-.86-.52-1.27-.68-1.68.83-.21.8-.2,2.08,2.13.62,1.11,1.39,2.13,2.33,3.56-6.25.26-3.37,4.77-3.76,7.82.41-.64,1.16-1.27,1.19-1.92.12-3.79,3.94-4.14,5.58-6.84l-.54-.91a19.09,19.09,0,0,0,3.28-3.09c.34-.51-.37-1.73-.6-2.62h2c1,3.47-1.12,6-2.43,8.79-1.66,3.56-2.82,7.36-4.37,11-.81,1.92-2.13,3.62-3,5.54-1.63,3.75-3.1,7.57-4.58,11.38a44.11,44.11,0,0,0-2.42,8.16c1.7-3.74,3.31-7.52,5.14-11.19,1.28-2.58,2.9-5,4.31-7.5a8.94,8.94,0,0,0,1.22-2.9c.27-2,1.43-2.12,3.09-1.66a9,9,0,0,1-.16-2.14,21.61,21.61,0,0,1,.87-2.69,18,18,0,0,1,3.17,1.9c.5.45.53,1.44.83,2.34l-2,1.54,2.78,2.33.5-.43-.4-.84,2.57-1.62,2.87.44-.07-.06c-.69,1.67-1.36,3.34-2.06,5a16.36,16.36,0,0,0-1.58,3.71c-.18,1.21.32,2.52.54,3.93l-3-2.53-.47.53,3.23,3.61c3-1,.23-3.14.94-4.59,2.32,2,2.22,1.89,4.6-.67s5.27-5.15,7.81-7.81a27.93,27.93,0,0,0,2.45-3.58v8L345,271.4,332.9,286.54l1.78.81a10.91,10.91,0,0,1,6.2-6c.81-.35,1.14-1.84,1.42-2.34l4.39-4.61c1.68.35,2.69,1.26,2.12,3.64-.53,2.2-.36,4.58-1,6.75a57.34,57.34,0,0,1-2.86,6.83l1.2.13c-1.1,3.79-2.26,7.48-3.22,11.23a69.43,69.43,0,0,1-7.62,17.91,21.82,21.82,0,0,0-2.05,4.36c.57-.35,1.39-.55,1.67-1.05,2.05-3.6,3.81-7.38,6-10.86,1.73-2.7,2.45-5.76,3.85-8.56a10.19,10.19,0,0,1,.44-1.13c1.09-1.63,2.22-3.23,3.39-4.93l3.17,2.23v2.13l-2.59-1a24.85,24.85,0,0,0-1.15,2.95c-.1.39.18,1.24.45,1.32a25.4,25.4,0,0,0,3.27.47l-1,2.14c-1.13.8-2,1.15-2.45,1.81a34.68,34.68,0,0,0-2,4.27c.6.13,1.67.32,2.72.6a5.09,5.09,0,0,1,2,1.09c-1.52.64-4.28.07-2.14,3,.16.23-.82,1.48-1.45,2.06a17.63,17.63,0,0,1-3.68,2.85,15.48,15.48,0,0,1-3.85.87c-2.5,5-3.5,5.81-6.18,4.92.94,2.61,2.06,2.88,4.13,1.2a17,17,0,0,1,2.71-1.31c1.79-1,3.55-2,5.33-3l-1-1.94.71-.41c1.17,1.5,2.35,3,3.66,4.64-2,1-4.78.82-4.54,4l-1.8.14c1.16,4.08-3.77,2.65-4.29,5.65.46.63,1.78,1.67,1.88,2.81s-1.13,2.21-2,3.67c.14.32.47,1.13.79,1.92l8.87-2.84c-2.33,3.59-7.34,2.87-8.05,6.53L330.87,355l.16.78,2.08.94-1.31,1,.41.65,2-1.28c.77,1.89.93,2,2.83,1.67l.24-2.49h.64l1.82,2.48c-1.22,4.25-4.34.78-6.57,1.47.14.7.25,1.23.36,1.77l-2.55.82.66.32c-.2,1.06-.41,2.12-.62,3.2-1.46-.86-2.91-1.5-4.26-.23l.16,1.11,4.15-.94c1.06,0,2.12.13,3.18.11a15.59,15.59,0,0,1,2.56,0c-4,3.28-7.55,7.34-13.5,6.55a14.36,14.36,0,0,1,1.66,3.34c.1.58-.66,1.33-1.06,2-1.14,1.85-3.44,1.77-5,3a3.64,3.64,0,0,0-.78,1c1.87.09,3.57.19,5.27.25,1,0,2.28.38,3-.08,2.35-1.5,3.72-.06,5.09.84l-3.88,1.27a12.14,12.14,0,0,0-3.59,1.35,5.33,5.33,0,0,0-1.74,3c-.12.58.88,1.38,1.41,2.13l-1,1.72a11.68,11.68,0,0,1,1.85.38c1.06.4,2.07.9,3.11,1.36l-.22.92H312.4l-.16.86a6.61,6.61,0,0,0,1.91.77c2.8.23,5.72-.06,8.07,2a.88.88,0,0,0,.21.12l2,.79a11.51,11.51,0,0,1-3.11.3c-1.05-.19-2-1.76-3.16-.1,1.94,1.4,3.83,2.46,6.44,2,1.34-.26,2.88.33,4.29.68.24,0,.57.95.42,1.16a1.82,1.82,0,0,1-1.29.7c-3.76-.13-7.71-1.2-11.22-.36-9.45,2.27-18.92.68-28.35,1-9.75.37-19.52.08-29.28.07s-19.35,0-29,0c-1.81,0-3.61-.1-5.41-.11-1.44,0-1.51-.64-1.59-2-.17-3,.13-5.94,0-8.9-.13-2.35-1.46-3.78-1.82-5.7a21,21,0,0,1,.17-4.74c-2.31,1.36-2.65,2.16-1.7,4.12-1.29.44-2.68,3.16-1.87,4.38,1.22,1.82.24,2.65-1.17,3.7.88,1.66,1.79,1.55,2.79.17,1.14,1.73,2,3.16.84,5.39-.9,1.77.83,1.2,1.88.94,0,1.85-.79,2.66-2.66,2.66q-29,0-57.93.07l-71.08.09c-1.66,0-3.31-.23-4.83-.34,1-2.06,2.41-3.87,2.83-5.87a12.66,12.66,0,0,0-.4-6.07c-1.44-4.73-3.29-9.33-4.86-14a48.89,48.89,0,0,1-2.27-8.24c-.85-5.72-1.3-11.51-2-17.25a3.74,3.74,0,0,0-1.58-2.32,2.19,2.19,0,0,0-2.12.5,5.39,5.39,0,0,0,0,2.62c.1,1.17.27,2.32.45,3.75l1,0a5.24,5.24,0,0,0-.2.65,5.32,5.32,0,0,0-.23,2.12c1.15,3.43,2.42,6.8,3.72,10.38l-1.86.25a2.34,2.34,0,0,0,.19.77A12.81,12.81,0,0,1,81,381.87a.75.75,0,0,0,.26.63c2.58,1.37,1,3.83,1.45,5.74a67.17,67.17,0,0,1,1.3,8.49,39.62,39.62,0,0,1,0,5.11c0,1-.09,2.05-.16,3.33-3.26,0-6.77.11-10.27-.09a2.73,2.73,0,0,1-1.81-1.95c.24-2.56.38-2.55-1.82-2.49-1.5-1.81,1.19-5.14-2.68-6.21l1.8-2.16-5.63-2.53.79-7.33a12.21,12.21,0,0,1-2.48.6c-.65-1.44-3.8.48-3.22-2.55l2-.31a22.21,22.21,0,0,0-1.24-3.94,2.43,2.43,0,0,0-2-.94c-3.08.33-6.14.85-8.93,1.27l6.58,5.9c-1.55,2.42-3.42-.07-5.18-.08l.39,2.86c1.09,1.72,4.73-2,4.63,2.66,1.49-.59,2.95-1.5,4.48-1.65,1.07-.11,2.23.83,3.53,1.37l-4.24,2.34-1.64-1.71c-2.65,2.09-1.6,4.47-.8,6.81l1.44-1.23,3.25,5.9c1-.39,2.33-.94,3.71-1.48l.45.74-4.77,3.9,1.42,1.21c-5.57,1.46-10.67,2.32-15.48-1.8l-.16.75.81,2.06H0c.82-4.35,1.6-8.49,2.39-12.63l-.63.2c-.44-1.2-1.42-2.49-1.22-3.58,1.05-5.86,2.48-11.65,3.62-17.5.78-4,1.39-8.06,1.93-12.11,1.55-11.53,2.86-23.08,4.57-34.58,1.27-8.58,3-17.08,4.57-25.61,1.23-6.74,2.57-13.46,3.68-20.21.19-1.17-.51-2.48-.87-4l1.5,1.12c.95-3.55,1.91-7,2.79-10.43.78-3.05,1.41-6.14,2.21-9.19.48-1.82,1.77-3.69-.6-4.4l7.29-3.42L29.46,251l.3.33,2.46-2.21c2.86,1.58,4.39,1.2,5.51-1.58l-2.17,1.28-1.1-3.55-1.94.32,3.56-2.78-2.18-.38c1.06-1.86,2.1-3.59,3-5.38a25.33,25.33,0,0,0,1.1-2.74,32.32,32.32,0,0,1,3.6-2.48,2,2,0,0,1,1.85.25c1.28,1.44,2.33.89,3.64,0a24.6,24.6,0,0,1,3.7-1.64l-2.7,2.7,3.54-.59L54,229.5l-.13-.43ZM283.29,69.48l2.07,5.45,1-.33c-.54-1.74-1.08-3.48-1.39-4.46l-1.69-.62,2.16-2.31c-3.13-3.85-2.43-9.35-4.45-14-.39.37-.51.44-.5.48,1.19,5,3.14,9.79,2,15.06C282.43,68.89,283,69.21,283.29,69.48ZM61,267.91c-1.82.12-1.33,1.16-.64,1.94,1.38,1.56,2.89,3,4.39,4.46,1,1,2,1.86,3.16,2.87.48-2.51-3.81-8.07-7-9.31l.88-2.55c-1.49.11-2.83.14-4.14.34-.28,0-.46.68-.68,1,.45.09,1.13.42,1.32.23C60,265.38,60.37,267,61,267.91Zm-1.82-19.54a16.91,16.91,0,0,0-2.36,1.09c-2,1.31-3.86,2.69-5.76,4.08a14.77,14.77,0,0,0-1.47,1.39,7.3,7.3,0,0,0,2,.32,25.92,25.92,0,0,0,3.18-.78l2.22,1.1a37,37,0,0,1,.45-5.14c.18-.8,1.1-1.43,1.69-2.13l7.44-.48c-1.45-1.45-2.83-3.43-3.34-3.23C61.56,245.27,59.25,245.77,59.21,248.37Zm117.13-75.14c.71-1.45,0-2-1.7-2.47v4.31l1.79-2c-.12,1.74-.32,3.45,1.7,4.44.43.21.52,1.1.8,1.66a7.21,7.21,0,0,0,1.28,2.43c1.47,1.24,3.15,2.24,4.73,3.35.46.32,1.21.7,1.23,1.08.15,2.68,2.06,2.51,3.85,2.51,3.6,0,7.19-.09,10.79-.09a9.33,9.33,0,0,1,2.05.59,17.27,17.27,0,0,1-2.34,1.23c-2.39.74-5,1-7.17,2.18-3.63,2-7.22,1.12-10-.69a44.59,44.59,0,0,0-11.28-5.53c-1.09-.34-2.16-.74-3.49-1.21a9.89,9.89,0,0,0-.68-2.25,8.17,8.17,0,0,0-1.56-1.61c-.34.73-1,1.47-.95,2.18a22.84,22.84,0,0,0,.85,3.45,31,31,0,0,0,1,4.77,30.27,30.27,0,0,0,2.74,4.45c.79,0,3.13-.84,2,1.37,1.64,1.35,3.11,2.5,4.51,3.72,1.68,1.47,3.33,3,5,4.5,3,2.81,7.75,1.55,10.64,4.63a1.62,1.62,0,0,0,1.14.34c3.93-.11,7.9-.72,11.76-.27s6.17-1.49,8.83-3.44a7.51,7.51,0,0,1,3.19-1c1.36-.23,3.09.21,4.07-.47a95.06,95.06,0,0,0,7.28-6.2c3.27,2,4.71,1.68,4.81-.43.89-.35,1.64-.61,2.35-.93,1.15-.53,2.26-1.13,3.43-1.63.66-.29,1.43-.32,2.07-.64,2.38-1.18,3.88-3.76,6.93-4a10.26,10.26,0,0,0,3.8-1.62,10,10,0,0,0,2.05-1.69,12.52,12.52,0,0,0,2.32-2.52c1.43-2.52,4.74-3.23,5.7-6.17.29-.88.92-1.65,1.24-2.52.73-2,2.18-4.12,1.83-5.91a5.49,5.49,0,0,1,.61-4.17,5.67,5.67,0,0,0,.39-2.39c.08-2.84-.06-5.69.17-8.51.35-4.31,1-8.58,1.36-12.88a86.41,86.41,0,0,0,.17-9.79c-.13-3.91-1.37-8-.63-11.67,1.42-7,.41-14,1.06-20.94a77.34,77.34,0,0,1,1.43-8.81c.79-3.74,2.35-7.29,1.88-11.3-.39-3.32-.23-6.7-.35-10s-.26-6.84-.5-10.25c-.14-2-.48-4-.79-6-.16-1.06-.46-2.1-.81-3.62-1.84,1.62-3.23,1.81-4.29.32-.25-.35.28-1.24.5-2.07-.53-1.43-3.59-.18-3.61-3,0-.59-2.5-1.16-3.85-1.74a54,54,0,0,1-7.3.67,3.09,3.09,0,0,0-1.48.69c-2.84,2.05-5.34,4.75-9.28,4.53a2,2,0,0,0-.71.16c-3.66,1.17-7.28,2.52-11,3.47-3.05.77-6.19,1.13-8.85,3.08a7.52,7.52,0,0,1-3.19,1.19,11.19,11.19,0,0,0-7.26,4.36c-2,2.49-3.72,5.54-6.31,7.1-4.82,2.9-7.72,7.55-11.76,11.1A15.37,15.37,0,0,1,185.23,84c-2.69.81-3.56,2.49-4,4.81.89.64,1.62,1.16,2.34,1.69,3.88,2.83,7.91,5.47,11.56,8.56,1.84,1.56,3,3.94,4.44,6,.14.22,0,.64,0,1-.81,4-1.53,8.1-2.52,12.1-.33,1.31-1.19,3.27-2.1,3.46-1.4.29-3.06-.71-4.79-1.21.53-1,.71-1.51,1-1.91,1.35-2,.54-3.59-1.42-4.24a26.39,26.39,0,0,0-6.45-1.09c-2.5-.17-5.07.3-7.53-.08-4.17-.66-4.14-.85-5.62,2.16-.14-.05-.34-.06-.43-.17-1.85-2-2.65-5.46-6.53-4.67-.21,0-.49-.41-.78-.56a3.16,3.16,0,0,0-4.37,1.9,14.29,14.29,0,0,1-1.63,2.93c-.84,1.29-2.18,2.4-2.58,3.79-1.35,4.7-2.53,9.47-3.48,14.26-.42,2.14.41,4.63-.34,6.56-.85,2.15-.33,3.46.7,5.16,1.69,2.77,3.37,5.6,2.67,9.13-.1.49.53,1.11.8,1.68a11.09,11.09,0,0,1,.93,2.16c1.11,4.89,2.14,9.8,3.25,14.7.25,1.07,4.92,2.37,5.8,1.67.18-.14.41-.43.37-.59-.46-1.81-.5-4-1.57-5.34-2.49-3.19-2.66-6.89.17-9.84,2.43-2.52,2.62-2.52,5,.08,1.77-1.21,3.22-1.37,3.19,1.48h2.07l-2,4.06a13,13,0,0,1,2.85,0c1.13.3,2.18,1,3.31,1.21,3.29.51,6.64.62,9.88,1.3,2.57.53,5.37,1.21,5.41,4.87a2.32,2.32,0,0,0,1.45,1.68,66.55,66.55,0,0,0,9.09,1.11c3.08.09,6.5.47,9.18-.66s5-1,7.54-1.09a6.61,6.61,0,0,0,5.63-3.6c.3-.55.05-1.41.05-2.17l1.91-.58c-1.91-3.82-3.73-7.44-5.61-11.19,3.1-.37,4.59.09,5.42,1.42,1.75,2.8,3.49,5.61,5.31,8.37,2.45,3.74,3.44,7.76,2.24,12.11-.35,1.26-1.4,3.36-2.06,3.33-2.76-.11-3.74,1.41-4.5,3.55-.06.18-.52.23-1.55.63a39.06,39.06,0,0,1,1-5.56c.9-2.7.2-3.83-2.71-3.65-6.75.42-13.5.82-20.24,1.34-7,.54-14,1.15-20.7-2.16C181.89,172.71,179.06,171.9,176.34,173.23Zm14.82,82.29c.05.31.43,1.09.19,1.46a11.14,11.14,0,0,1-2,1.92c-1.14-1.7-3.1-.75-4.47-1.37a47.74,47.74,0,0,1-7.18-4.17c-3.29-2.24-6.49-4.61-9.66-7-4.3-3.26-8.55-6.59-12.78-9.95a6,6,0,0,1-1-1.65c-1.28-2.11-2.11-4.83-3.94-6.17-2.08-1.53-1.92-2.85-1.42-4.74a1.73,1.73,0,0,0-.2-1.17c-1.6-2.74-1.1-6.22-3.21-8.84-.46-.57.16-2,.14-3a11.57,11.57,0,0,0-.39-2.54c-.36-1.38-1.31-2.8-1.13-4.08.54-3.83-1.5-6.38-3.83-8.8a2.87,2.87,0,0,0-2.54-.32c-2.71,1.16-4.3,5.33-3.28,9.1,1.61,5.9,3.45,11.75,5.29,17.59.19.62,1,1,1.25,1.23a27.94,27.94,0,0,0,.61,3.54,49.05,49.05,0,0,0,1.86,4.8c2.59,5.92,4.92,12,7.9,17.69,4.34,8.36,10.77,15.15,17.45,21.7a52,52,0,0,0,15.58,10.87c3.24,1.41,6.82,2,10.22,3.1,4.1,1.27,8.22.87,12.35.27.72-.1,1.41-1,2.06-.9a22.34,22.34,0,0,1,3.79.94c.25-.83.25-1.94.78-2.32a15.43,15.43,0,0,1,4.9-2.76,6.56,6.56,0,0,0,5.28-5.4c-3.59.77-5.48,3.94-8.39,5.4a3.46,3.46,0,0,1,1-1.44c5.09-4.73,10.29-9.34,15.26-14.19a87.64,87.64,0,0,0,23.93-40c.51-1.85.71-3.79,1.13-6.09-1.53,1.38-2.55,2.28-3.54,3.21-2.48,2.29-5,4.52-7.4,6.92-2.63,2.65-4.92,5.65-7.69,8.13-2.38,2.13-4.12,4.85-7.16,6.45-2.46,1.31-5.39,2.64-6.43,5.78a.55.55,0,0,1-.39.28c-3.89.37-5,4.14-7.53,6.23-2.18,1.84-5.43,3-8.18,2.1-.87-.28-2-.71-2.72-.38C200.41,259.57,195.92,257.1,191.16,255.52ZM172,380.09c-.88-.27-2-.26-2.44-.81a21.19,21.19,0,0,0-5.39-5.72c-2-1.33-3.27-3.91-4.75-6a35.19,35.19,0,0,1-1.95-3.59c-1.52,1.06-2.11.32-2.83-.95a25.57,25.57,0,0,0-3-4c-1.44-1.65-3.15-3.09-4.44-4.85a66.86,66.86,0,0,1-3.92-6.51,17.27,17.27,0,0,1-.83-2.25l-3-7.48a9,9,0,0,0,.17-2.17c0-.18-1-.23-2.08-.44-.27-1.14-.65-2.78-1-4.41l.61-.12,1.18.87-3.64-10.24c-2.72.4-2.65.37-3.68-2.14a23.09,23.09,0,0,0-2-3.24l-.63,0c-.14.66-.55,1.4-.38,2,.74,2.55,1.59,5.08,2.52,7.57,1.29,3.49,2.83,6.9,4,10.43,1,3,1.59,6.16,2.32,9.26.31,1.3.51,2.62.81,4.19a2.12,2.12,0,0,1,1.26,3c-.1.31-.16.87,0,1,3.41,2.47,1.82,6.81,3.75,9.93,1.39,2.23,1.83,5,2.69,7.59.49,0,.46.13.39.28-.56,1.11,1.48,5.72,2.4,5.4l.4-2.15c.86,1.46,1.55,2.62,2.29,3.89l-1,3.07c3.39-2.37,4.54-1.9,6.25,2.08l-2-.26c1.72,3,3.12,3.5,5.82,2.35.84-.36,2.1-.76,2.7-.39a8.45,8.45,0,0,1,3.29,3.2c.87,1.87,1.75,1.43,2.88.88a21.39,21.39,0,0,0,5,2.23c.43.12,1.27-.67,1.69-1.23.25-.33,0-1,0-1.73L174,390.34l-.79-.48c.82-1.76,1.63-3.52,2.45-5.27l-.47-.2-.64.37Zm73.47-80.18.11.19-1.88,5.06c-.46,1.89-.71,3.15-1.08,4.36-.2.68-.69,1.27-.89,2-.93,3.15-1.73,6.35-2.72,9.48-1.83,5.8-3.74,11.57-5.67,17.34-.6,1.79-1.36,3.53-1.93,5-.5,2.19-.95,4.12-1.41,6.15-4.73,1.88-2-2.71-3.38-4.09-1,2.6-2,5-2.92,7.4-.08.22-.13.64,0,.71,1.44,1,.48,2.22.44,3.37-.07,1.69,0,3.37,0,5.06l1.53-.24a10.93,10.93,0,0,0-1.09,2.75c-.12,1.66-1.49,3.15-.39,5,.5.86.25,2.22.19,3.34-.12,2.17-.34,4.33-.53,6.49l.63.24a10,10,0,0,0,1.07-2.4c.4-2.73.65-5.48.93-8.22.2-2.07,0-4.25.57-6.2,1.72-5.67,3.86-11.22,5.64-16.88,3-9.43,5.58-19,8.71-28.33,3.77-11.31,7.85-22.52,12-33.71,1.87-5.12,2.83-10.66,6.37-15.09.13-.16,0-.48.12-.69,1.24-3.34,2.39-6.72,3.77-10,1.94-4.64,4.54-9.06,6-13.85,1.34-4.46,1.58-9.27,2.23-13.94.07-.52-.33-1.1-.5-1.65l-.53,0q-.69,3.25-1.4,6.49l-.48-.4-2.93,3,2,1.85c-2.59,0-5.18,2.53-4.36,4.32,1.05,2.3.45,3.21-1.61,3.13-3.46,6.55-4.27,13.68-6.54,20.37-2.34,6.88-4.1,14-6.06,20.77l-.67-.63c-.19.83-.55,1.47-.39,1.9.85,2.22-.14,4-1.28,5.68-.65,1-1.68,1.8-.54,3.15C246.61,298.39,245.81,299.33,245.44,299.91Zm35.94-28.37.79-.05a41.26,41.26,0,0,1,0-4.85c.6-4.85,1.38-9.68,2-14.53a42.59,42.59,0,0,0,.36-5.86c-.08-10,2.75-19.95-.57-30.07a5.06,5.06,0,0,0-1.48,2.42c-.5,3.21-.78,6.46-1.22,9.69-.36,2.67-1.11,5.31-1.2,8s.7,5.47.61,8.2a99.69,99.69,0,0,1-1.12,10c-.21,1.54-.6,3.06-.86,4.59a4.77,4.77,0,0,0,0,1.19c.06.89.17,1.78.18,2.68C279,266.07,279.48,269,281.38,271.54Zm19.89-48c-.57.54-1.44,1-1.68,1.62-1.54,4.19-2.76,8.52-4.46,12.64-1.11,2.72-3.3,5-4.25,7.78-2.38,7-4.38,14.07-6.44,21.15-1.33,4.6-2.48,9.24-3.73,13.86a2.51,2.51,0,0,1-.32.66c-1.87,2.92-1.71,6.22-1.74,9.48,0,.49.41,1,.63,1.47.8-3.19.4-6.31,2-9.19.84-1.52,1.06-3.4,1.57-5.11.94-3.14,1.86-6.28,2.84-9.4.3-1,.77-1.93,1.36-3.36l-.4-.65c4.44-3.37,4.38-8.93,7.14-13l2.39.95.2-.38-2.06-1.9A5.52,5.52,0,0,0,295,249c1.4-4.27,2.77-8.55,4.14-12.84C300.42,232.3,302.69,228.63,301.27,223.55ZM294.11,60.62c.17-.71.69-1.59.45-2.1Q290,49.06,285.3,39.69c-.62-1.23-1.84-2.23-2.2-3.51-.84-2.91-4.05-2.79-5.47-4.77l2.91,9-.44.15q-1.74-3.2-3.5-6.39l-1.24.6c.85,2.46,1.6,4.95,2.58,7.35.6,1.46,1.28,3.59,2.42,4,1.88.66,2,2,2.76,3.3,1.34,2.42,2.85,4.74,4.3,7.11l.86-.47c-1.29-2.83-2.59-5.66-4.08-8.94L286,48.17l.48-.34q-2.26-4.68-4.52-9.37l.68-.3,7.14,11.61-.61.43-1.13-.61Zm-8.48-29.79-.23.27c2,3.44,4.05,6.86,6,10.32,1,1.76,1.88,3.6,2.83,5.39s1.87,3.81,3,5.57c1,1.56,1.62,3,.63,4l3.25,4.21a15.59,15.59,0,0,0,0-3.7c-.88-3.28-1.86-6.53-3-9.73-.75-2.1-1.4-4.51-2.87-6A64.44,64.44,0,0,1,288.89,34,28.11,28.11,0,0,0,285.63,30.83Zm-75.94.6c2.35-.3,2.77.66,1.56,2.46l8-1.83.12.59-1.11,1.18,10.19-4,0-.38h-9.38l-.07-.77,6.06-1,.12-.76c-1.29-.31-2.8-1.19-3.83-.8-2.73,1-5.23,2.66-7.88,3.94A32.9,32.9,0,0,1,209.69,31.43Zm80.71,189v9.36l1.46,1.38-1.61.33c-.3,1-.55,1.92-.79,2.72.31.2,1.21.59,1.17.79a29,29,0,0,1-1,3.37l-.5-.06,1,3.14.9.07c1.47-6.16,2.94-12.31,4.35-18.24ZM215.7,43.26c6.87,0,11.94-3.57,17.43-6.11-3.92-.06-7.77.62-11.62.61-1.95,0-3.61,1.49-3.56,2.06C218.08,41.53,216.67,41.89,215.7,43.26ZM116.49,361.15c1.64-12.11-.82-23.8-3.2-35.5l-.94-.16v4.09A129,129,0,0,1,116.49,361.15ZM275.93,242.24l-.68-.22a6.28,6.28,0,0,0-.61,1.58c-.54,5.66-3.47,10.88-3,16.75.07.91-.78,1.88-1.1,2.85a4.78,4.78,0,0,0-.22,1.91c0,.2.87.56.93.49a3.54,3.54,0,0,0,1-1.51c.35-2.07.37-4.21.88-6.23.81-3.3,2.1-6.49,2.82-9.8C276.26,246.2,275.93,244.18,275.93,242.24ZM233.8,227l.69,1c3.51.06,4.87-3.35,7.06-5.14,1.79-1.46,1.74-4.49,1-7.34-3.21,2.43-3.84,5.89-4.65,8.34ZM173.32,95.69l-.19.62a29.6,29.6,0,0,0-3.79.58,8.91,8.91,0,0,0-2.11,1.27c.47.48.9,1.32,1.43,1.38,2.73.33,5.48.5,8.23.65a9.54,9.54,0,0,0,2.14-.38l.07-.62Zm7.69,15.9a20,20,0,0,0,4.34.43,3.31,3.31,0,0,0,2.39-1.71,2.79,2.79,0,0,0-1-2.56,3.57,3.57,0,0,0-3,.5A17.73,17.73,0,0,0,181,111.59Zm92.3-56.74.81-.1c-1-6.27.18-13-4-19.06C271.22,42.4,272.27,48.62,273.31,54.85ZM288.44,79.8l-1,.34c-.23,2.34,1.4,3.9,2.75,5.56-1.15,1.67,1.5,7.15,4.83,9.81ZM165.79,310.2c-2.82,2,.76,4.39-.91,6.46l3.94,1.8v-5.39Zm-110,64,.77-.87a22.31,22.31,0,0,0-3-2.35c-1.05-.58-2.35-.68-3.43-1.21a2,2,0,0,0-2.73.78c-.16.42-.29.84-.43,1.27.6.13,1.29.54,1.78.36C51.58,371.18,54,371.51,55.82,374.19Zm261.59,16.26.14.67,3.21,1.1c.13-1.54.27-3.07.38-4.4-1.67.5-2.84.92-4,1.2-1.8.42-2.28,1.18-1.44,2.6ZM162.47,302.78a25.48,25.48,0,0,0-.59,4,2.79,2.79,0,0,0,1.14,1.86,2.19,2.19,0,0,0,1.93.26c.47-.3,1-1.48.73-1.83A52.59,52.59,0,0,0,162.47,302.78Zm134.61-96.27.79-.29c-2.58-2.18.63-2.88.65-4.75l-4.08-.8,1.66,2.72-2.39.32-.15.55ZM104,313.7c-1.18,1.45.45,4.91,3.22,7C107.62,317.57,105.48,315.83,104,313.7Zm-4.34-9.18-.51.24,3.18,8.18.71.39c.18-.42.63-1,.5-1.24C102.33,309.54,101,307,99.69,304.52Zm193.92-94.89-.15.63a14.92,14.92,0,0,0,2.56,1.63c.35.13,1.47-.6,1.44-.81a17.32,17.32,0,0,0-.9-2.84,21.51,21.51,0,0,1-1.86,1.31C294.42,209.71,294,209.61,293.61,209.63Zm-134,85.87c-.61,2.2-.77,4.07,1.25,5.34.42.26,1.14.05,1.73.06a8.53,8.53,0,0,0-1-1.32,26.68,26.68,0,0,0-2.11-1.64h2.11ZM293.66,51.94h2.42l-3.7-5.12-.53.36ZM220.94,287.31c-1,.69-1.9,1.27-2.76,1.89s-1.51,1.13-2.26,1.7l.37.47,5.88-2.69Zm-50.55,35.32c.29-.4.4-.52.48-.66.65-1.19.35-2.1-.94-2.49a5.25,5.25,0,0,0-1.71.07c.48.65,1,1.3,1.43,2C169.87,321.83,170.08,322.15,170.39,322.63Zm47-23.42-.82-.52-3.28,6,.49.3ZM90.62,211.81l3.2-1.17-2.38-2.08C91.14,209.73,91,210.48,90.62,211.81ZM310.28,65.74c-2,2.77-.29,4.2,1,6.27C310.89,69.78,310.63,68.07,310.28,65.74Zm-24,216.42.85.57,2.75-3.64-.85-.62Zm-158,33.2.7-1.16-2.2-1.59c-.18.47-.63,1.2-.49,1.34A11.88,11.88,0,0,0,128.27,315.36ZM87.08,292.24l3.71,2.95C91.1,292.62,90.72,292.26,87.08,292.24ZM70.49,333.07l.79-.31c-1.1-.87,1.13-3.15-2.25-3.69Zm225.7-74.74c.32-1.46.55-2.49.77-3.52l-.74-.16C295.69,255.65,293.27,256.23,296.19,258.33Zm-3.74,10.85c.26-2,.44-3.4.62-4.78l-.52-.15-1.5,2.29Zm-8.36-237c.08-2.9-2.58-2.85-3.92-4.2Z"/><path class="cls-1" d="M354.85,371.53c.23,1,.47,2,.85,3.63-2-2.27-2.39-5.78-6-4.9.21-.71.69-1.5.52-2.11-.12-.44-1.13-.62-1.74-.91l-.63,1.7-1.87-7.5c2-1.37,5.28.85,7.08-1.6-1.74-.39-4-.4-4.18-1-.51-1.74-.18-3.73-.18-6.08,3.12,2.89,3.48,2.85,6.15.41A33.38,33.38,0,0,1,358,351a28.29,28.29,0,0,0-3.44-1.41c-1.53-.39-2.2-1-1.11-2.71.51.7,1,1.33,1.42,1.95-.76-3,.35-4.69,3.65-5.06l-.47-.84-7.24,1.2c.72-3.61,4-2.15,6.42-3-1.33-1.62-1.44-2.74.65-3.44.43-.14.72-1.44.66-2.17-.09-1-1.23-2.07.57-2.85a22.31,22.31,0,0,0-.91-3.48l.84.05a20,20,0,0,1,.08-4.65,7.85,7.85,0,0,1,2.53-3.72c.16-1.06.31-2.12.51-3.44-.63-.52-2.47-1.06-.2-2.47.63-.39.5-1.87.95-2.73a7.15,7.15,0,0,1,1.57-1.53,16,16,0,0,1,1.28,2.41,3.49,3.49,0,0,1-.21,1.65c-.44,2.11.34,3.27,2.77,3.25l-1.48,3.74,1.6,4.31-2.09-.13-.41.52,2.1,2.14L366.18,331c.21,2.67.45,5.61.7,8.71-2.42,1.14-3.9,2.88-2.56,5.92l-.64.33-.38-1-3.58,1.46c1.34.64,2.31,1.41,3.34,1.5a1.77,1.77,0,0,1,1.81,2.31c-.19,1.1-.46,2.51-2.33,2.12-1.55-.32-2.08.46-1.77,2a3,3,0,0,1-.23,1.95c-1.08,1.93-.37,2.7,1.36,2.78L359.38,363l-4.49-1c.95,1.42,1.55,2.31,2.14,3.21l-.68,0c-.13,1.86-.21,3.73-.44,5.57,0,.32-.72.56-1.1.84l-.66-5.69h-.6l-.71,1.26c-1.18-1.06-2-2.87-3.59-1.48,1,.85,2,1.6,2.8,2.49C353.05,369.22,353.92,370.4,354.85,371.53Zm2.29-13.26,1.86,1.4.55-.27c-.39-1-.72-2.9-1.19-2.94a35.44,35.44,0,0,0-6,.46l0,.88C354.07,357.58,354.62,362.46,357.14,358.27Z"/><path class="cls-1" d="M342.81,388.71c1.4,0,2.4.06,3.39,0s1.91-.29,2.26-.34l3.36-3.42c2.53,4-3,3.93-2.21,6.4l-2.92-.6-.09.61C345.43,390.54,344.27,389.74,342.81,388.71Z"/><path class="cls-1" d="M366.51,301.65l2.53,8.8-.56.28-2.07-3.87-.44.19c.23.69.46,1.38.93,2.83-1.23-.7-2.15-.91-2.52-1.49C363.62,307.21,364.82,303.26,366.51,301.65Z"/><path class="cls-1" d="M351.11,377.5c-1.33.25-2.46.39-3.56.68s-2.12.79-3.21,1.05c-.28.07-.7-.4-1-.63.19-.3.32-.78.59-.88,1.51-.56,3.05-1,4.57-1.53S351,376.22,351.11,377.5Z"/><path class="cls-1" d="M372.66,307v-8l.3,0,.57,8Z"/><path class="cls-1" d="M356.26,403.26l-4.46.41-.09-1.14,4.46-.35Z"/><path class="cls-1" d="M223.72,122.48l-7-1.74,1.2-2.74-3.6.22c-1.07-1.5,1.56-4.88-2.4-5.11-1.15-2.27-1.41-4.42.22-6.64a4.35,4.35,0,0,1,4.34-2.1c2,.23,3.83.33,5.28-1.58.42-.54,1.78-.48,2.71-.5,3,0,6-.08,9,.09a12.91,12.91,0,0,1,3.9,1.05,53.5,53.5,0,0,1,5,2.31,23.91,23.91,0,0,1,2.48,1.67l-.16.66-13.45,2,0,.92,2.32,1,17.85,7.29a6.49,6.49,0,0,0,1.17.31c2.15.39,3.61,1.19,2.47,3.77a3.06,3.06,0,0,0,0,1.24l-16.09-2.22,1.53-1.24-3.81-3.6c-.48.38-1.21.7-1.54,1.25-1.92,3.25-4.86,3.7-8.24,3.34a14.87,14.87,0,0,0-3.16.32Z"/><path class="cls-1" d="M215,155.33a13,13,0,0,1-8.35,2.21,9.51,9.51,0,0,0-7.11,1.9c-3,2.32-6.54,1.6-9.91,1.24a45.38,45.38,0,0,1-5.67-1.3c-.42-1.29-.72-2.24-1.19-3.7-1,1.28-1.49,2-2,2.66a4.12,4.12,0,0,1-.41-.37c1.49-2.49,1.94-4.74-.73-6.93-.71-.58-.58-2.17-.89-3.53,5,1.29,9,3.12,11.18,7.68.37.78,1.67,1.17,2.59,1.62.5.24,1.36,0,1.64.34,2.15,2.47,3.51.75,5.17-.69,2.72-2.38,6-2.2,9.3-1.63A63.13,63.13,0,0,0,215,155.33Z"/><path class="cls-1" d="M223.66,122.42c.08.66-.06,1.68.3,1.9,2.61,1.6,5.29,3.09,8,4.51a37,37,0,0,1,4,2c-6.9-1.12-12.8-4.37-18.89-8.37h6.61Z"/><path class="cls-1" d="M171.8,117.67c2-1.66,10.63-1.92,12.69,0Z"/></g></g></svg>